<?xml version="1.0" standalone="no"?>
<!DOCTYPE svg PUBLIC "-//W3C//DTD SVG 20010904//EN"
 "http://www.w3.org/TR/2001/REC-SVG-20010904/DTD/svg10.dtd">
<svg version="1.0" xmlns="http://www.w3.org/2000/svg"
 width="375.000000pt" height="375.000000pt" viewBox="0 0 375.000000 375.000000"
 preserveAspectRatio="xMidYMid meet">

<g transform="translate(0.000000,375.000000) scale(0.100000,-0.100000)"
fill="#000000" stroke="none">
<path d="M2255 2491 c-84 -23 -147 -73 -193 -150 -23 -40 -27 -57 -27 -127 0
-72 3 -84 27 -116 36 -48 82 -62 175 -55 l73 5 -6 -26 c-10 -41 -42 -81 -71
-88 -16 -4 -39 0 -62 12 -20 10 -40 20 -44 22 -11 5 -6 -49 6 -65 14 -19 78
-16 112 6 83 51 112 101 144 251 12 52 21 95 21 97 0 2 -32 3 -71 3 -55 0 -79
-5 -105 -21 -44 -27 -44 -42 1 -23 19 7 50 14 70 14 32 0 35 -3 34 -27 0 -16
-6 -50 -12 -77 -14 -58 -40 -72 -113 -61 -113 17 -154 135 -94 271 25 57 85
121 127 135 72 23 163 -6 163 -53 0 -11 4 -17 9 -13 14 8 25 66 15 75 -13 13
-144 20 -179 11z"/>
<path d="M2635 2356 c-76 -33 -139 -130 -139 -215 0 -48 3 -56 33 -83 29 -26
40 -30 76 -26 140 16 247 226 160 314 -28 27 -81 32 -130 10z m79 -28 c25 -35
21 -144 -6 -198 -30 -57 -66 -83 -102 -74 -34 8 -46 38 -46 108 0 129 103 238
154 164z"/>
<path d="M1535 1974 c-44 -23 -100 -80 -128 -133 -21 -39 -97 -351 -97 -400 0
-8 11 -11 27 -9 25 3 29 9 40 61 20 88 102 208 155 226 41 15 43 1 18 -128
-12 -61 -20 -121 -18 -134 3 -24 32 -33 73 -23 28 7 85 53 85 69 0 6 -12 -1
-27 -15 -38 -34 -62 -42 -70 -21 -3 8 4 71 17 139 23 120 23 124 5 144 -10 11
-26 20 -35 20 -32 0 -99 -55 -136 -112 -21 -32 -39 -56 -41 -54 -7 6 49 250
63 278 19 36 48 51 95 46 38 -3 48 7 49 50 0 17 -39 15 -75 -4z"/>
<path d="M1767 1983 c-11 -20 -17 -83 -8 -83 13 0 17 8 25 53 4 22 3 37 -3 37
-5 0 -12 -3 -14 -7z"/>
<path d="M1945 1938 c8 -48 10 -52 22 -47 12 5 -6 89 -18 89 -7 0 -8 -15 -4
-42z"/>
<path d="M1090 1872 c-49 -27 -75 -65 -75 -113 0 -36 7 -46 74 -113 41 -40 78
-83 83 -96 11 -30 -5 -71 -33 -89 -33 -20 -104 -16 -143 8 -32 20 -34 20 -50
3 -9 -10 -16 -21 -16 -24 0 -13 104 -30 143 -24 93 15 168 91 152 154 -3 15
-37 56 -74 92 -101 96 -110 122 -62 171 23 23 39 29 70 29 43 0 81 -26 81 -55
0 -27 18 -16 25 16 10 42 -4 52 -78 57 -47 2 -70 -1 -97 -16z"/>
<path d="M2195 1754 c-35 -18 -75 -54 -75 -67 0 -5 16 5 35 22 42 37 53 38 64
9 6 -18 -24 -205 -45 -270 -4 -14 1 -18 25 -18 28 0 30 3 41 58 14 67 82 178
129 211 21 15 40 21 55 17 18 -4 28 0 39 18 18 27 13 36 -18 36 -34 0 -103
-56 -137 -111 -17 -27 -33 -49 -35 -49 -2 0 -1 29 3 65 10 92 -13 114 -81 79z"/>
<path d="M2633 1749 c-77 -38 -133 -128 -133 -214 0 -74 28 -105 95 -105 48 0
130 34 155 66 11 12 0 10 -37 -10 -90 -45 -153 -28 -153 42 0 29 2 31 58 43
46 9 65 20 100 54 48 48 56 91 22 125 -26 26 -54 25 -107 -1z m67 -34 c16 -42
-11 -92 -62 -115 -80 -36 -94 -22 -59 56 34 75 102 108 121 59z"/>
<path d="M1869 1740 c-77 -41 -142 -143 -143 -226 -1 -61 15 -84 58 -84 51 0
111 51 150 128 24 47 29 35 16 -36 -14 -78 -8 -92 41 -92 31 0 47 8 79 36 22
20 38 39 35 42 -3 3 -18 -7 -33 -21 -32 -31 -72 -36 -72 -9 0 9 13 77 29 150
l28 132 -76 0 c-55 -1 -86 -6 -112 -20z m113 -16 c27 -17 -29 -130 -100 -206
-78 -84 -118 -54 -87 65 30 117 73 163 139 153 22 -4 43 -9 48 -12z"/>
</g>
</svg>
